<svg width="100" height="100" viewBox="0 0 100 100" fill="none" xmlns="http://www.w3.org/2000/svg">
<g clip-path="url(#clip0_49_83)">
<path d="M50 0C22.3828 0 0 22.3828 0 50C0 77.6172 22.3828 100 50 100C77.6172 100 100 77.6172 100 50C100 22.3828 77.6172 0 50 0ZM75 56.25H40.0977L49.7422 65.8945C52.1836 68.3359 52.1836 72.291 49.7422 74.7324C47.3008 77.1738 43.3457 77.1738 40.9043 74.7324L20.5859 54.4141C19.0234 52.8711 18.75 50.957 18.75 50C18.75 49.0463 19.0217 47.1367 20.5855 45.5762L40.7223 25.4395C43.1637 22.998 47.1188 22.998 49.5602 25.4395C52.0016 27.8809 52.0016 31.8359 49.5602 34.2773L40.0977 43.75H75C78.4551 43.75 81.25 46.5488 81.25 50C81.25 53.4512 78.457 56.25 75 56.25Z" fill="#9DD5F5"/>
</g>
<defs>
<clipPath id="clip0_49_83">
<rect width="100" height="100" fill="white"/>
</clipPath>
</defs>
</svg>
