<svg width="100" height="100" viewBox="0 0 100 100" fill="none" xmlns="http://www.w3.org/2000/svg">
<g clip-path="url(#clip0_49_81)">
<path d="M50 0C22.3828 0 0 22.3828 0 50C0 77.6172 22.3828 100 50 100C77.6172 100 100 77.6172 100 50C100 22.3828 77.6172 0 50 0ZM79.4141 54.4141L59.2773 74.5508C56.8359 76.9922 52.8809 76.9922 50.4395 74.5508C47.998 72.1094 47.998 68.1543 50.4395 65.7129L59.9219 56.25H25C21.543 56.25 18.75 53.457 18.75 50C18.75 46.543 21.5449 43.75 25 43.75H59.9219L50.2773 34.1055C47.8359 31.6641 47.8359 27.709 50.2773 25.2676C52.7188 22.8262 56.6738 22.8262 59.1152 25.2676L79.252 45.4043C80.9766 47.1289 81.25 49.043 81.25 50C81.25 50.957 80.9766 52.8711 79.4141 54.4141Z" fill="#BBE6FE"/>
</g>
<defs>
<clipPath id="clip0_49_81">
<rect width="100" height="100" fill="white"/>
</clipPath>
</defs>
</svg>
