<svg width="84" height="86" viewBox="0 0 84 86" fill="none" xmlns="http://www.w3.org/2000/svg">
<path d="M83.7591 28.5929C84.3335 30.0206 83.8462 31.6309 82.6625 32.6767L75.1256 39.2176C75.317 40.5955 75.4215 42.0066 75.4215 43.4343C75.4215 44.862 75.317 46.2731 75.1256 47.651L82.6625 54.1919C83.8462 55.2378 84.3335 56.8481 83.7591 58.2758C82.9933 60.2513 82.0707 62.1605 81.0263 63.97L80.2082 65.3147C79.0594 67.1408 77.7713 68.8673 76.3614 70.5108C75.317 71.6895 73.6286 72.1046 72.0969 71.6397L62.4015 68.6847C60.0691 70.3946 57.3363 71.8223 54.7427 72.918L52.5669 82.3973C52.2188 83.8914 51.0003 84.9539 49.399 85.3523C46.9969 85.7341 44.5252 85.9333 41.8446 85.9333C39.4773 85.9333 37.0056 85.7341 34.6035 85.3523C33.0022 84.9539 31.7837 83.8914 31.4356 82.3973L29.2598 72.918C26.5096 71.8223 23.9334 70.3946 21.601 68.6847L11.9126 71.6397C10.3739 72.1046 8.67674 71.6895 7.64629 70.5108C6.23463 68.8673 4.94656 67.1408 3.79774 65.3147L2.98312 63.97C1.92655 62.1605 1.00749 60.2513 0.236392 58.2758C-0.327574 56.8481 0.14762 55.2378 1.3417 54.1919L8.8717 47.651C8.68023 46.2731 8.58101 44.862 8.58101 43.4343C8.58101 42.0066 8.68023 40.5955 8.8717 39.2176L1.3417 32.6767C0.14762 31.6309 -0.327574 30.0372 0.236392 28.5929C1.00749 26.6173 1.92829 24.7082 2.98312 22.8986L3.796 21.5539C4.94656 19.7278 6.23463 18.0013 7.64629 16.3661C8.67674 15.1791 10.3739 14.7674 11.9126 15.2355L21.601 18.1839C23.9334 16.4673 26.5096 15.0396 29.2598 13.9556L31.4356 4.47631C31.7837 2.96892 33.0022 1.77197 34.6035 1.51797C37.0056 1.13465 39.4773 0.935272 42.0013 0.935272C44.5252 0.935272 46.9969 1.13465 49.399 1.51797C51.0003 1.77197 52.2188 2.96892 52.5669 4.47631L54.7427 13.9556C57.3363 15.0396 60.0691 16.4673 62.4015 18.1839L72.0969 15.2355C73.6286 14.7674 75.317 15.1791 76.3614 16.3661C77.7713 18.0013 79.0594 19.7278 80.2082 21.5539L81.0263 22.8986C82.0707 24.7082 82.9933 26.6173 83.7591 28.5929ZM42.0013 56.7153C49.6949 56.7153 55.9263 50.772 55.9263 43.2849C55.9263 36.0966 49.6949 30.004 42.0013 30.004C34.3076 30.004 28.0761 36.0966 28.0761 43.2849C28.0761 50.772 34.3076 56.7153 42.0013 56.7153Z" fill="#D9D9D9"/>
</svg>
