<svg width="26" height="24" viewBox="0 0 26 24" fill="none" xmlns="http://www.w3.org/2000/svg">
<path d="M25.1277 7.80938C25.3001 8.2125 25.1539 8.66719 24.7988 8.9625L22.5377 10.8094C22.5951 11.1984 22.6264 11.5969 22.6264 12C22.6264 12.4031 22.5951 12.8016 22.5377 13.1906L24.7988 15.0375C25.1539 15.3328 25.3001 15.7875 25.1277 16.1906C24.898 16.7484 24.6212 17.2875 24.3079 17.7984L24.0625 18.1781C23.7178 18.6937 23.3314 19.1812 22.9084 19.6453C22.5951 19.9781 22.0886 20.0953 21.6291 19.9641L18.7205 19.1297C18.0207 19.6125 17.2009 20.0156 16.4228 20.325L15.7701 23.0016C15.6656 23.4234 15.3001 23.7234 14.8197 23.8359C14.0991 23.9438 13.3576 24 12.5534 24C11.8432 24 11.1017 23.9438 10.3811 23.8359C9.90065 23.7234 9.53511 23.4234 9.43067 23.0016L8.77794 20.325C7.95287 20.0156 7.18003 19.6125 6.48029 19.1297L3.57378 19.9641C3.11216 20.0953 2.60302 19.9781 2.29389 19.6453C1.87039 19.1812 1.48397 18.6937 1.13932 18.1781L0.894936 17.7984C0.577966 17.2875 0.302248 16.7484 0.0709177 16.1906C-0.0982723 15.7875 0.044286 15.3328 0.402509 15.0375L2.66151 13.1906C2.60407 12.8016 2.5743 12.4031 2.5743 12C2.5743 11.5969 2.60407 11.1984 2.66151 10.8094L0.402509 8.9625C0.044286 8.66719 -0.0982723 8.21719 0.0709177 7.80938C0.302248 7.25156 0.578488 6.7125 0.894936 6.20156L1.1388 5.82187C1.48397 5.30625 1.87039 4.81875 2.29389 4.35703C2.60302 4.02187 3.11216 3.90562 3.57378 4.03781L6.48029 4.87031C7.18003 4.38562 7.95287 3.9825 8.77794 3.67641L9.43067 0.999844C9.53511 0.574219 9.90065 0.23625 10.3811 0.164531C11.1017 0.0562969 11.8432 0 12.6004 0C13.3576 0 14.0991 0.0562969 14.8197 0.164531C15.3001 0.23625 15.6656 0.574219 15.7701 0.999844L16.4228 3.67641C17.2009 3.9825 18.0207 4.38562 18.7205 4.87031L21.6291 4.03781C22.0886 3.90562 22.5951 4.02187 22.9084 4.35703C23.3314 4.81875 23.7178 5.30625 24.0625 5.82187L24.3079 6.20156C24.6212 6.7125 24.898 7.25156 25.1277 7.80938ZM12.6004 15.75C14.9085 15.75 16.7779 14.0719 16.7779 11.9578C16.7779 9.92813 14.9085 8.20781 12.6004 8.20781C10.2923 8.20781 8.42285 9.92813 8.42285 11.9578C8.42285 14.0719 10.2923 15.75 12.6004 15.75Z" fill="#E4A30B"/>
</svg>
