<svg width="35" height="40" viewBox="0 0 35 40" fill="none" xmlns="http://www.w3.org/2000/svg">
<g clip-path="url(#clip0_10_26)">
<path d="M17.5077 11.0156C12.5389 11.0156 8.5311 15.0234 8.5311 19.9922C8.5311 24.9609 12.5389 28.9687 17.5077 28.9687C22.4764 28.9687 26.4842 24.9609 26.4842 19.9922C26.4842 15.0234 22.4764 11.0156 17.5077 11.0156ZM17.5077 25.8281C14.2967 25.8281 11.6717 23.2109 11.6717 19.9922C11.6717 16.7734 14.2889 14.1562 17.5077 14.1562C20.7264 14.1562 23.3436 16.7734 23.3436 19.9922C23.3436 23.2109 20.7186 25.8281 17.5077 25.8281ZM28.9452 10.6484C28.9452 11.8125 28.0077 12.7422 26.8514 12.7422C25.6873 12.7422 24.7577 11.8047 24.7577 10.6484C24.7577 9.49219 25.6952 8.55469 26.8514 8.55469C28.0077 8.55469 28.9452 9.49219 28.9452 10.6484ZM34.8905 12.7734C34.7577 9.96875 34.117 7.48437 32.0623 5.4375C30.0155 3.39062 27.5311 2.75 24.7264 2.60937C21.8358 2.44531 13.1717 2.44531 10.2811 2.60937C7.48422 2.74219 4.99985 3.38281 2.94516 5.42969C0.890473 7.47656 0.25766 9.96094 0.117035 12.7656C-0.0470276 15.6562 -0.0470276 24.3203 0.117035 27.2109C0.249847 30.0156 0.890473 32.5 2.94516 34.5469C4.99985 36.5937 7.47641 37.2344 10.2811 37.375C13.1717 37.5391 21.8358 37.5391 24.7264 37.375C27.5311 37.2422 30.0155 36.6016 32.0623 34.5469C34.1092 32.5 34.7498 30.0156 34.8905 27.2109C35.0545 24.3203 35.0545 15.6641 34.8905 12.7734ZM31.1561 30.3125C30.5467 31.8437 29.367 33.0234 27.828 33.6406C25.5233 34.5547 20.0545 34.3437 17.5077 34.3437C14.9608 34.3437 9.48422 34.5469 7.18735 33.6406C5.6561 33.0312 4.47641 31.8516 3.85922 30.3125C2.94516 28.0078 3.1561 22.5391 3.1561 19.9922C3.1561 17.4453 2.95297 11.9687 3.85922 9.67187C4.4686 8.14062 5.64828 6.96094 7.18735 6.34375C9.49203 5.42969 14.9608 5.64062 17.5077 5.64062C20.0545 5.64062 25.5311 5.4375 27.828 6.34375C29.3592 6.95312 30.5389 8.13281 31.1561 9.67187C32.0702 11.9766 31.8592 17.4453 31.8592 19.9922C31.8592 22.5391 32.0702 28.0156 31.1561 30.3125Z" fill="#012336"/>
</g>
<defs>
<clipPath id="clip0_10_26">
<rect width="35" height="40" fill="white"/>
</clipPath>
</defs>
</svg>
