<svg width="30" height="30" viewBox="0 0 30 30" fill="none" xmlns="http://www.w3.org/2000/svg">
<path d="M21.25 26.25C19.1828 26.2482 17.1479 25.7373 15.325 24.7625L14.7625 24.45C10.8759 22.3604 7.68962 19.174 5.6 15.2875L5.2875 14.725C4.28728 12.8917 3.75891 10.8383 3.75 8.74997V7.91247C3.74947 7.24617 4.01495 6.60722 4.4875 6.13747L6.6 4.02497C6.80516 3.81822 7.09476 3.71856 7.3837 3.75529C7.67264 3.79202 7.9281 3.96096 8.075 4.21247L10.8875 9.03747C11.1719 9.52858 11.0898 10.1497 10.6875 10.55L8.325 12.9125C8.12881 13.1065 8.08308 13.4063 8.2125 13.65L8.65 14.475C10.2213 17.3855 12.6116 19.7715 15.525 21.3375L16.35 21.7875C16.5937 21.9169 16.8935 21.8712 17.0875 21.675L19.45 19.3125C19.8503 18.9102 20.4714 18.8281 20.9625 19.1125L25.7875 21.925C26.039 22.0719 26.2079 22.3273 26.2447 22.6163C26.2814 22.9052 26.1818 23.1948 25.975 23.4L23.8625 25.5125C23.3928 25.985 22.7538 26.2505 22.0875 26.25H21.25Z" fill="#E4A30B"/>
</svg>
